<svg width="15" height="19" viewBox="0 0 15 19" fill="none" xmlns="http://www.w3.org/2000/svg">
<path d="M7.07143 9.1709C7.55759 9.1709 7.97377 8.99465 8.31998 8.64215C8.66618 8.28965 8.83929 7.8659 8.83929 7.3709C8.83929 6.8759 8.66618 6.45215 8.31998 6.09965C7.97377 5.74715 7.55759 5.5709 7.07143 5.5709C6.58527 5.5709 6.16909 5.74715 5.82288 6.09965C5.47667 6.45215 5.30357 6.8759 5.30357 7.3709C5.30357 7.8659 5.47667 8.28965 5.82288 8.64215C6.16909 8.99465 6.58527 9.1709 7.07143 9.1709ZM7.07143 15.7859C8.86875 14.1059 10.202 12.5796 11.0712 11.2071C11.9404 9.83465 12.375 8.6159 12.375 7.5509C12.375 5.9159 11.8631 4.57715 10.8392 3.53465C9.81529 2.49215 8.55938 1.9709 7.07143 1.9709C5.58348 1.9709 4.32757 2.49215 3.30368 3.53465C2.2798 4.57715 1.76786 5.9159 1.76786 7.5509C1.76786 8.6159 2.20246 9.83465 3.07165 11.2071C3.94085 12.5796 5.27411 14.1059 7.07143 15.7859ZM7.07143 18.1709C4.69955 16.1159 2.92801 14.2071 1.75681 12.4446C0.585603 10.6821 0 9.0509 0 7.5509C0 5.3009 0.710826 3.5084 2.13248 2.1734C3.55413 0.838399 5.20045 0.170898 7.07143 0.170898C8.94241 0.170898 10.5887 0.838399 12.0104 2.1734C13.432 3.5084 14.1429 5.3009 14.1429 7.5509C14.1429 9.0509 13.5573 10.6821 12.386 12.4446C11.2148 14.2071 9.4433 16.1159 7.07143 18.1709Z" fill="black"/>
</svg>
