<svg width="391" height="256" viewBox="0 0 391 256" fill="none" xmlns="http://www.w3.org/2000/svg">
<path d="M0 6H350V92H40L0 114V6Z" fill="white"/>
<rect x="41.5" y="93.5" width="347" height="95" stroke="white" stroke-width="3"/>
<path d="M240.858 221.327C240.858 222.567 240.538 223.611 239.897 224.458C239.256 225.285 238.388 225.915 237.293 226.349C236.218 226.783 235.04 227 233.759 227H223.126V204.99H234.906C235.939 204.99 236.828 205.269 237.572 205.827C238.337 206.364 238.915 207.067 239.308 207.935C239.721 208.782 239.928 209.671 239.928 210.601C239.928 211.655 239.659 212.657 239.122 213.608C238.585 214.559 237.799 215.261 236.766 215.716C238.027 216.088 239.019 216.76 239.742 217.731C240.486 218.702 240.858 219.901 240.858 221.327ZM236.549 220.521C236.549 219.963 236.435 219.467 236.208 219.033C235.981 218.578 235.671 218.227 235.278 217.979C234.906 217.71 234.472 217.576 233.976 217.576H227.404V223.373H233.759C234.276 223.373 234.741 223.249 235.154 223.001C235.588 222.732 235.929 222.381 236.177 221.947C236.425 221.513 236.549 221.038 236.549 220.521ZM227.404 208.648V214.197H233.108C233.583 214.197 234.017 214.083 234.41 213.856C234.803 213.629 235.113 213.308 235.34 212.895C235.588 212.482 235.712 211.986 235.712 211.407C235.712 210.849 235.598 210.363 235.371 209.95C235.164 209.537 234.875 209.216 234.503 208.989C234.152 208.762 233.749 208.648 233.294 208.648H227.404ZM253.589 227.155C251.977 227.155 250.51 226.845 249.187 226.225C247.885 225.605 246.759 224.768 245.808 223.714C244.878 222.639 244.155 221.441 243.638 220.118C243.122 218.775 242.863 217.4 242.863 215.995C242.863 214.528 243.132 213.133 243.669 211.81C244.227 210.467 244.982 209.278 245.932 208.245C246.904 207.191 248.04 206.364 249.342 205.765C250.665 205.145 252.112 204.835 253.682 204.835C255.274 204.835 256.72 205.155 258.022 205.796C259.345 206.437 260.471 207.294 261.401 208.369C262.331 209.444 263.055 210.642 263.571 211.965C264.088 213.288 264.346 214.652 264.346 216.057C264.346 217.504 264.078 218.899 263.54 220.242C263.003 221.565 262.249 222.753 261.277 223.807C260.327 224.84 259.19 225.657 257.867 226.256C256.565 226.855 255.139 227.155 253.589 227.155ZM247.203 215.995C247.203 216.946 247.348 217.865 247.637 218.754C247.927 219.643 248.34 220.438 248.877 221.141C249.435 221.823 250.107 222.371 250.892 222.784C251.698 223.177 252.608 223.373 253.62 223.373C254.654 223.373 255.573 223.166 256.379 222.753C257.185 222.319 257.857 221.751 258.394 221.048C258.932 220.325 259.335 219.529 259.603 218.661C259.893 217.772 260.037 216.884 260.037 215.995C260.037 215.044 259.882 214.135 259.572 213.267C259.283 212.378 258.859 211.593 258.301 210.911C257.764 210.208 257.092 209.661 256.286 209.268C255.501 208.855 254.612 208.648 253.62 208.648C252.566 208.648 251.636 208.865 250.83 209.299C250.045 209.712 249.384 210.27 248.846 210.973C248.309 211.676 247.896 212.461 247.606 213.329C247.338 214.197 247.203 215.086 247.203 215.995ZM267.628 227V204.99H277.362C278.375 204.99 279.305 205.197 280.152 205.61C281.02 206.023 281.764 206.581 282.384 207.284C283.025 207.987 283.51 208.772 283.841 209.64C284.192 210.508 284.368 211.397 284.368 212.306C284.368 213.236 284.203 214.135 283.872 215.003C283.562 215.85 283.107 216.594 282.508 217.235C281.909 217.876 281.206 218.372 280.4 218.723L285.422 227H280.71L276.184 219.622H271.906V227H267.628ZM271.906 215.871H277.269C277.806 215.871 278.282 215.716 278.695 215.406C279.108 215.075 279.439 214.641 279.687 214.104C279.935 213.567 280.059 212.967 280.059 212.306C280.059 211.603 279.914 210.994 279.625 210.477C279.336 209.94 278.964 209.516 278.509 209.206C278.075 208.896 277.6 208.741 277.083 208.741H271.906V215.871ZM288.244 227V204.99H296.242C298.64 204.99 300.644 205.486 302.256 206.478C303.868 207.449 305.077 208.772 305.883 210.446C306.689 212.099 307.092 213.939 307.092 215.964C307.092 218.196 306.648 220.139 305.759 221.792C304.871 223.445 303.61 224.727 301.977 225.636C300.365 226.545 298.454 227 296.242 227H288.244ZM302.783 215.964C302.783 214.538 302.525 213.288 302.008 212.213C301.492 211.118 300.748 210.27 299.776 209.671C298.805 209.051 297.627 208.741 296.242 208.741H292.522V223.249H296.242C297.648 223.249 298.836 222.939 299.807 222.319C300.779 221.678 301.512 220.81 302.008 219.715C302.525 218.599 302.783 217.349 302.783 215.964ZM325.718 223.249V227H310.435V204.99H325.439V208.741H314.713V214.042H323.982V217.514H314.713V223.249H325.718ZM335.036 204.99H339.376L347.467 227H343.065L341.019 221.513H333.331L331.316 227H326.914L335.036 204.99ZM340.244 218.506L337.206 209.423L334.044 218.506H340.244ZM358.334 227.155C356.577 227.155 355.079 226.866 353.839 226.287C352.62 225.688 351.628 224.871 350.863 223.838C350.119 222.805 349.571 221.637 349.22 220.335C348.869 219.012 348.693 217.638 348.693 216.212V204.99H352.971V216.212C352.971 217.121 353.054 218.01 353.219 218.878C353.405 219.725 353.705 220.49 354.118 221.172C354.531 221.854 355.079 222.391 355.761 222.784C356.443 223.177 357.29 223.373 358.303 223.373C359.336 223.373 360.194 223.177 360.876 222.784C361.579 222.371 362.126 221.823 362.519 221.141C362.932 220.459 363.232 219.694 363.418 218.847C363.604 217.979 363.697 217.101 363.697 216.212V204.99H367.944V216.212C367.944 217.721 367.758 219.136 367.386 220.459C367.035 221.782 366.466 222.949 365.681 223.962C364.916 224.954 363.924 225.739 362.705 226.318C361.486 226.876 360.029 227.155 358.334 227.155ZM374.547 204.99L380.003 213.112L385.428 204.99H390.078L382.452 216.15L389.83 227H385.18L380.003 219.188L374.795 227H370.114L377.492 216.15L369.866 204.99H374.547Z" fill="white"/>
<path d="M37.5528 77L18.3248 23.42H32.6128L45.5328 62.18H41.9608L55.8688 23.42H65.7488L78.8208 62.18H75.7808L89.0048 23.42H102.457L83.0768 77H71.9048L59.5168 42.116H61.4168L48.7248 77H37.5528ZM131.745 77.836C127.692 77.836 123.993 77.1773 120.649 75.86C117.305 74.5427 114.417 72.668 111.985 70.236C109.604 67.7533 107.755 64.8147 106.437 61.42C105.171 58.0253 104.537 54.276 104.537 50.172C104.537 46.0173 105.171 42.2427 106.437 38.848C107.755 35.4533 109.604 32.54 111.985 30.108C114.417 27.676 117.305 25.8267 120.649 24.56C123.993 23.2427 127.692 22.584 131.745 22.584C135.799 22.584 139.497 23.2427 142.841 24.56C146.185 25.8267 149.048 27.676 151.429 30.108C153.861 32.54 155.711 35.4533 156.977 38.848C158.295 42.192 158.953 45.9413 158.953 50.096C158.953 54.3013 158.295 58.1013 156.977 61.496C155.711 64.8907 153.861 67.8293 151.429 70.312C149.048 72.744 146.185 74.6187 142.841 75.936C139.497 77.2027 135.799 77.836 131.745 77.836ZM131.745 66.132C134.431 66.132 136.711 65.4987 138.585 64.232C140.46 62.9653 141.904 61.1413 142.917 58.76C143.931 56.3787 144.437 53.516 144.437 50.172C144.437 46.828 143.931 43.9653 142.917 41.584C141.955 39.2027 140.511 37.404 138.585 36.188C136.711 34.9213 134.431 34.288 131.745 34.288C129.111 34.288 126.831 34.9213 124.905 36.188C123.031 37.404 121.587 39.2027 120.573 41.584C119.56 43.9653 119.053 46.828 119.053 50.172C119.053 53.516 119.535 56.3787 120.497 58.76C121.511 61.1413 122.98 62.9653 124.905 64.232C126.831 65.4987 129.111 66.132 131.745 66.132ZM166.602 77V23.42H178.23L196.698 56.48H194.038L212.43 23.42H223.754V77H211.138V45.156H212.734L198.902 69.096H191.302L177.47 45.08H179.218V77H166.602ZM232.858 77V23.42H270.706V34.212H246.234V44.396H268.958V55.188H246.234V66.208H270.706V77H232.858ZM278.781 77V23.42H289.041L315.793 56.784H313.665V23.42H326.585V77H316.401L289.649 43.56H291.777V77H278.781Z" fill="#1E1336"/>
<path d="M66.3042 169V115.42H80.2882V169H66.3042ZM89.2199 169V115.42H99.4799L126.232 148.784H124.104V115.42H137.024V169H126.84L100.088 135.56H102.216V169H89.2199ZM179.656 169V126.82H162.632V115.42H210.664V126.82H193.64V169H179.656ZM215.19 169V115.42H253.038V126.212H228.566V136.396H251.29V147.188H228.566V158.208H253.038V169H215.19ZM288.318 169.836C282.39 169.836 277.298 168.696 273.042 166.416C268.786 164.136 265.518 160.919 263.238 156.764C261.009 152.609 259.894 147.745 259.894 142.172C259.894 136.599 261.009 131.76 263.238 127.656C265.518 123.501 268.786 120.284 273.042 118.004C277.298 115.724 282.39 114.584 288.318 114.584C291.865 114.584 295.285 115.116 298.578 116.18C301.871 117.244 304.531 118.688 306.558 120.512L302.378 131.532C300.149 129.911 297.919 128.72 295.69 127.96C293.461 127.149 291.181 126.744 288.85 126.744C284.138 126.744 280.591 128.087 278.21 130.772C275.829 133.407 274.638 137.207 274.638 142.172C274.638 147.188 275.829 151.039 278.21 153.724C280.591 156.359 284.138 157.676 288.85 157.676C291.181 157.676 293.461 157.296 295.69 156.536C297.919 155.725 300.149 154.509 302.378 152.888L306.558 163.908C304.531 165.681 301.871 167.125 298.578 168.24C295.285 169.304 291.865 169.836 288.318 169.836ZM312.678 169V115.42H326.662V136.092H348.778V115.42H362.686V169H348.778V147.568H326.662V169H312.678Z" fill="white"/>
</svg>
